<svg width="30" height="32" viewBox="0 0 30 32" fill="none" xmlns="http://www.w3.org/2000/svg">
<path d="M11.7432 1.97368C12.1358 1.97368 12.5123 2.12964 12.7898 2.40724C13.0675 2.68485 13.2234 3.06136 13.2234 3.45395V15.7895C13.2234 16.0512 13.3274 16.3022 13.5125 16.4873C13.6976 16.6723 13.9486 16.7763 14.2103 16.7763C14.472 16.7763 14.723 16.6723 14.9081 16.4873C15.0931 16.3022 15.1971 16.0512 15.1971 15.7895V10.7901L15.3668 10.7822C15.9925 10.7586 16.6241 10.7664 16.9774 10.8355C17.2418 10.8888 17.5576 11.025 17.8616 11.1947C18.0136 11.2776 18.1576 11.4849 18.1576 11.8145V15.7895C18.1576 16.0512 18.2616 16.3022 18.4467 16.4873C18.6318 16.6723 18.8828 16.7763 19.1445 16.7763C19.4062 16.7763 19.6572 16.6723 19.8423 16.4873C20.0273 16.3022 20.1313 16.0512 20.1313 15.7895V12.7007L20.3405 12.6809C20.9642 12.6336 21.4932 12.6612 21.7379 12.7599C21.9708 12.8507 22.33 13.1684 22.6971 13.6086C22.857 13.798 22.9932 13.9836 23.0918 14.1197V16.7763C23.0918 17.038 23.1958 17.2891 23.3809 17.4741C23.566 17.6592 23.817 17.7632 24.0787 17.7632C24.3404 17.7632 24.5915 17.6592 24.7765 17.4741C24.9616 17.2891 25.0655 17.038 25.0655 16.7763V14.8026H25.7405C26.0164 14.8026 26.2891 14.8604 26.5413 14.9724C26.7934 15.0842 27.0192 15.2477 27.2043 15.4523C27.3893 15.6569 27.5294 15.8979 27.6155 16.16C27.7017 16.4221 27.732 16.6993 27.7043 16.9737L27.1695 22.3322C27.1004 23.0209 26.8872 23.6873 26.5438 24.2882L23.7905 29.1079C23.7042 29.2589 23.5796 29.3844 23.4292 29.4718C23.2787 29.5592 23.1079 29.6052 22.934 29.6053H10.4958C10.3127 29.6053 10.1332 29.5543 9.97735 29.4581C9.82158 29.3619 9.69558 29.2243 9.61356 29.0605L7.18199 24.1954L2.2241 15.9355C2.09672 15.722 2.05171 15.4693 2.09752 15.2248C2.14333 14.9804 2.27681 14.7612 2.47289 14.6083C2.66896 14.4553 2.91413 14.3792 3.16233 14.3943C3.41054 14.4094 3.64469 14.5146 3.82081 14.6901L8.57737 19.4467C8.71529 19.5849 8.89111 19.6792 9.08256 19.7175C9.27408 19.7558 9.47256 19.7364 9.65303 19.6618C9.8335 19.5872 9.98777 19.4608 10.0963 19.2984C10.2049 19.1361 10.2629 18.9452 10.2629 18.75V3.45395C10.2629 3.06136 10.4189 2.68485 10.6965 2.40724C10.9741 2.12964 11.3506 1.97368 11.7432 1.97368ZM15.1971 8.81447V3.45395C15.1971 2.53791 14.8332 1.65938 14.1855 1.01164C13.5377 0.363897 12.6592 0 11.7432 0C10.8271 0 9.94861 0.363897 9.30085 1.01164C8.65316 1.65938 8.28921 2.53791 8.28921 3.45395V16.3678L5.2162 13.2947C4.69916 12.7806 4.01225 12.4727 3.28436 12.429C2.55648 12.3853 1.83767 12.6088 1.26282 13.0574C0.68797 13.506 0.296605 14.149 0.16217 14.8657C0.0277346 15.5824 0.159469 16.3236 0.532653 16.95L5.4491 25.1467L7.84713 29.9428C8.09311 30.4345 8.47119 30.8481 8.93903 31.1372C9.40687 31.4261 9.94592 31.5791 10.4958 31.5789H22.934C23.4558 31.5788 23.9683 31.4407 24.4196 31.1787C24.8708 30.9167 25.2449 30.54 25.5037 30.0868L28.257 25.2691C28.7383 24.4269 29.0369 23.4928 29.1333 22.5276L29.6682 17.1691C29.723 16.6203 29.6623 16.0662 29.4899 15.5423C29.3176 15.0185 29.0373 14.5366 28.6673 14.1276C28.2972 13.7188 27.8456 13.3919 27.3415 13.1683C26.8374 12.9445 26.2921 12.8289 25.7405 12.8289H24.5938C24.4707 12.6618 24.3424 12.4986 24.209 12.3395C23.832 11.8875 23.2024 11.2184 22.4721 10.9263C21.7537 10.6382 20.8024 10.6658 20.1866 10.7132L19.9261 10.7368C19.716 10.199 19.3252 9.75095 18.8208 9.46974C18.3672 9.207 17.876 9.01524 17.3642 8.90132C16.7524 8.77895 15.9057 8.78684 15.2918 8.81053L15.1971 8.81447Z" fill="black"/>
</svg>
